<svg id="Layer_1" data-name="Layer 1" xmlns="http://www.w3.org/2000/svg" viewBox="0 0 310 468.22"><defs><style>.cls-1{fill:#020202;stroke:#000;stroke-miterlimit:10;}</style></defs><title>Untitled-2</title><path class="cls-1" d="M596,131.28l-159.06-60L287,131.28v79s9,45,39,79,78,30,78,30l83,.14s41,17.86,39,43.86l-84.5,79-90.5-83v-19s-47-22-64-48v103l154.5,143,154.5-146s0-26.56-4.85-50c-2.93-14.17-7.38-26.18-11.59-33.73,0,0-22.56-48.24-90.56-58.24l-85-2s-49-4-53-61l85.94-41,91.06,40,1,43s57,31,67,49Z" transform="translate(-286.5 -70.74)"/></svg>